<?xml version="1.0" encoding="utf-8"?>
<!-- Generator: Adobe Illustrator 16.0.0, SVG Export Plug-In . SVG Version: 6.00 Build 0)  -->
<!DOCTYPE svg PUBLIC "-//W3C//DTD SVG 1.1//EN" "http://www.w3.org/Graphics/SVG/1.1/DTD/svg11.dtd">
<svg version="1.1" id="Layer_1" xmlns="http://www.w3.org/2000/svg" xmlns:xlink="http://www.w3.org/1999/xlink" x="0px" y="0px"
	 width="400.937px" height="204px" viewBox="0 0 400.937 204" enable-background="new 0 0 400.937 204" xml:space="preserve">
<g>
	<rect x="24.708" y="37" fill="#FFFFFF" width="68" height="123"/>
	<g>
		<defs>
			<filter id="Adobe_OpacityMaskFilter" filterUnits="userSpaceOnUse" x="0" y="185.874" width="114.937" height="9.802">
				<feColorMatrix  type="matrix" values="1 0 0 0 0  0 1 0 0 0  0 0 1 0 0  0 0 0 1 0"/>
			</filter>
		</defs>
		<mask maskUnits="userSpaceOnUse" x="0" y="185.874" width="114.937" height="9.802" id="SVGID_1_">
			<g filter="url(#Adobe_OpacityMaskFilter)">
				
					<radialGradient id="SVGID_2_" cx="110.9321" cy="-1338.7188" r="54.8909" gradientTransform="matrix(1.0468 0 0 0.0893 -58.655 310.3219)" gradientUnits="userSpaceOnUse">
					<stop  offset="0" style="stop-color:#FFFFFF"/>
					<stop  offset="1" style="stop-color:#14130A"/>
				</radialGradient>
				<path fill="url(#SVGID_2_)" d="M114.937,190.776c0,2.708-25.73,4.899-57.469,4.899C25.727,195.676,0,193.484,0,190.776
					c0-2.711,25.727-4.903,57.467-4.903C89.207,185.874,114.937,188.065,114.937,190.776z"/>
			</g>
		</mask>
		<linearGradient id="SVGID_3_" gradientUnits="userSpaceOnUse" x1="57.4829" y1="195.6646" x2="57.4551" y2="185.9542">
			<stop  offset="0" style="stop-color:#4D4848"/>
			<stop  offset="0.3539" style="stop-color:#14130A"/>
			<stop  offset="1" style="stop-color:#14130A"/>
		</linearGradient>
		<path opacity="0.33" mask="url(#SVGID_1_)" fill="url(#SVGID_3_)" d="M114.937,190.776c0,2.708-25.73,4.899-57.469,4.899
			C25.727,195.676,0,193.484,0,190.776c0-2.711,25.727-4.903,57.467-4.903C89.207,185.874,114.937,188.065,114.937,190.776z"/>
		<path fill="#231F20" d="M98.488,24.949c0-6.375-5.168-11.542-11.542-11.542H29c-6.376,0-11.543,5.167-11.543,11.542v148.4
			c0,6.375,5.167,11.543,11.543,11.543h57.947c6.374,0,11.542-5.168,11.542-11.543V24.949z M66.45,28.54
			c0,1.009-0.815,1.825-1.825,1.825H52.26c-1.009,0-1.826-0.816-1.826-1.825v-0.118c0-1.009,0.816-1.825,1.826-1.825h12.365
			c1.009,0,1.825,0.816,1.825,1.825V28.54z M92.836,160.393H24.052V37.904h68.785V160.393z"/>
	</g>
	<g>
		<rect x="24.708" y="50" fill-rule="evenodd" clip-rule="evenodd" fill="#8CC63F" width="68" height="45"/>
		<g>
			<path id="path72_3_" inkscape:connector-curvature="0" fill="#FFFFFF" d="M59.89,64.392
				c-0.193-10.818-30.707-10.896-31.154,0.581c-0.284,7.298,6.184,12.104,6.321,18.546c0.127,5.878,19.374,5.418,18.973-0.369
				C53.443,74.64,59.273,70.871,59.89,64.392"/>
			<path id="path124_3_" inkscape:connector-curvature="0" fill="#8CC63F" d="M43.454,65.533h1.313c1.443,0,2.625,1.112,2.625,2.47
				v16.961c0,1.359-1.181,2.472-2.625,2.472h-1.313c-1.444,0-2.625-1.112-2.625-2.472V68.003
				C40.83,66.645,42.01,65.533,43.454,65.533"/>
			<path id="path126_3_" inkscape:connector-curvature="0" fill="#8CC63F" d="M44.111,56.923c2.015,0,3.65,1.712,3.65,3.824
				s-1.635,3.824-3.65,3.824c-2.016,0-3.651-1.712-3.651-3.824S42.095,56.923,44.111,56.923"/>
		</g>
	</g>
	<rect x="27.708" y="100" fill="#D34658" width="60" height="33"/>
	<g>
		<rect x="27.708" y="139" fill="#666666" width="60" height="2"/>
		<rect x="27.708" y="143" fill="#999999" width="42" height="3"/>
		<rect x="27.708" y="147" fill="#999999" width="47" height="5"/>
	</g>
	<rect x="28.495" y="155" fill="#999999" width="41.469" height="0"/>
	<rect x="29.751" y="157" fill="#999999" width="55.958" height="0"/>
	<g>
		<rect x="63.708" y="64" fill="#FFFFFF" width="24" height="2"/>
		<rect x="63.708" y="70" fill="#FFFFFF" width="18" height="1"/>
		<rect x="63.889" y="75" fill="#FFFFFF" width="18.802" height="0"/>
	</g>
	<polygon opacity="0.3" fill="#FFFFFF" points="92.708,160.584 92.708,37 24.495,37 	"/>
</g>
<g>
	<rect x="166.708" y="37" fill="#FFFFFF" width="68" height="123"/>
	<g>
		<defs>
			<filter id="Adobe_OpacityMaskFilter_1_" filterUnits="userSpaceOnUse" x="142" y="185.874" width="114.937" height="9.802">
				<feColorMatrix  type="matrix" values="1 0 0 0 0  0 1 0 0 0  0 0 1 0 0  0 0 0 1 0"/>
			</filter>
		</defs>
		<mask maskUnits="userSpaceOnUse" x="142" y="185.874" width="114.937" height="9.802" id="SVGID_4_">
			<g filter="url(#Adobe_OpacityMaskFilter_1_)">
				
					<radialGradient id="SVGID_5_" cx="246.5835" cy="-1338.7188" r="54.8909" gradientTransform="matrix(1.0468 0 0 0.0893 -58.655 310.3219)" gradientUnits="userSpaceOnUse">
					<stop  offset="0" style="stop-color:#FFFFFF"/>
					<stop  offset="1" style="stop-color:#14130A"/>
				</radialGradient>
				<path fill="url(#SVGID_5_)" d="M256.937,190.776c0,2.708-25.73,4.899-57.469,4.899c-31.741,0-57.467-2.191-57.467-4.899
					c0-2.711,25.727-4.903,57.467-4.903C231.207,185.874,256.937,188.065,256.937,190.776z"/>
			</g>
		</mask>
		<linearGradient id="SVGID_6_" gradientUnits="userSpaceOnUse" x1="199.4829" y1="195.665" x2="199.4551" y2="185.9547">
			<stop  offset="0" style="stop-color:#4D4848"/>
			<stop  offset="0.3539" style="stop-color:#14130A"/>
			<stop  offset="1" style="stop-color:#14130A"/>
		</linearGradient>
		<path opacity="0.33" mask="url(#SVGID_4_)" fill="url(#SVGID_6_)" d="M256.937,190.776c0,2.708-25.73,4.899-57.469,4.899
			c-31.741,0-57.467-2.191-57.467-4.899c0-2.711,25.727-4.903,57.467-4.903C231.207,185.874,256.937,188.065,256.937,190.776z"/>
		<path fill="#231F20" d="M240.488,24.949c0-6.375-5.168-11.542-11.542-11.542H171c-6.376,0-11.543,5.167-11.543,11.542v148.4
			c0,6.375,5.167,11.543,11.543,11.543h57.947c6.374,0,11.542-5.168,11.542-11.543V24.949z M208.45,28.54
			c0,1.009-0.815,1.825-1.825,1.825H194.26c-1.009,0-1.826-0.816-1.826-1.825v-0.118c0-1.009,0.816-1.825,1.826-1.825h12.365
			c1.009,0,1.825,0.816,1.825,1.825V28.54z M234.836,160.393h-68.785V37.904h68.785V160.393z"/>
	</g>
	<g>
		<rect x="166.708" y="50" fill-rule="evenodd" clip-rule="evenodd" fill="#8CC63F" width="68" height="45"/>
		<g>
			<path id="path72_1_" inkscape:connector-curvature="0" fill="#FFFFFF" d="M201.89,64.392
				c-0.193-10.818-30.707-10.896-31.154,0.581c-0.284,7.298,6.184,12.104,6.321,18.546c0.127,5.878,19.374,5.418,18.973-0.369
				C195.443,74.64,201.273,70.871,201.89,64.392"/>
			<path id="path124_1_" inkscape:connector-curvature="0" fill="#8CC63F" d="M185.454,65.533h1.313c1.443,0,2.625,1.112,2.625,2.47
				v16.961c0,1.359-1.181,2.472-2.625,2.472h-1.313c-1.444,0-2.625-1.112-2.625-2.472V68.003
				C182.83,66.645,184.01,65.533,185.454,65.533"/>
			<path id="path126_1_" inkscape:connector-curvature="0" fill="#8CC63F" d="M186.111,56.923c2.015,0,3.65,1.712,3.65,3.824
				s-1.635,3.824-3.65,3.824c-2.016,0-3.651-1.712-3.651-3.824S184.095,56.923,186.111,56.923"/>
		</g>
	</g>
	<rect x="169.708" y="100" fill="#D34658" width="60" height="33"/>
	<g>
		<rect x="169.708" y="139" fill="#666666" width="60" height="2"/>
		<rect x="169.708" y="143" fill="#999999" width="42" height="3"/>
		<rect x="169.708" y="147" fill="#999999" width="47" height="5"/>
	</g>
	<rect x="170.495" y="155" fill="#999999" width="41.469" height="0"/>
	<rect x="171.751" y="157" fill="#999999" width="55.958" height="0"/>
	<g>
		<rect x="205.708" y="64" fill="#FFFFFF" width="24" height="2"/>
		<rect x="205.708" y="70" fill="#FFFFFF" width="18" height="1"/>
		<rect x="205.889" y="75" fill="#FFFFFF" width="18.802" height="0"/>
	</g>
	<polygon opacity="0.3" fill="#FFFFFF" points="234.708,160.584 234.708,37 166.495,37 	"/>
</g>
<g>
	<rect x="310.708" y="37" fill="#FFFFFF" width="68" height="123"/>
	<g>
		<defs>
			<filter id="Adobe_OpacityMaskFilter_2_" filterUnits="userSpaceOnUse" x="286" y="185.874" width="114.937" height="9.802">
				<feColorMatrix  type="matrix" values="1 0 0 0 0  0 1 0 0 0  0 0 1 0 0  0 0 0 1 0"/>
			</filter>
		</defs>
		<mask maskUnits="userSpaceOnUse" x="286" y="185.874" width="114.937" height="9.802" id="SVGID_7_">
			<g filter="url(#Adobe_OpacityMaskFilter_2_)">
				
					<radialGradient id="SVGID_8_" cx="384.1455" cy="-1338.7188" r="54.8909" gradientTransform="matrix(1.0468 0 0 0.0893 -58.655 310.3219)" gradientUnits="userSpaceOnUse">
					<stop  offset="0" style="stop-color:#FFFFFF"/>
					<stop  offset="1" style="stop-color:#14130A"/>
				</radialGradient>
				<path fill="url(#SVGID_8_)" d="M400.937,190.776c0,2.708-25.73,4.899-57.469,4.899c-31.741,0-57.467-2.191-57.467-4.899
					c0-2.711,25.727-4.903,57.467-4.903C375.207,185.874,400.937,188.065,400.937,190.776z"/>
			</g>
		</mask>
		<linearGradient id="SVGID_9_" gradientUnits="userSpaceOnUse" x1="343.4824" y1="195.665" x2="343.4546" y2="185.9547">
			<stop  offset="0" style="stop-color:#4D4848"/>
			<stop  offset="0.3539" style="stop-color:#14130A"/>
			<stop  offset="1" style="stop-color:#14130A"/>
		</linearGradient>
		<path opacity="0.33" mask="url(#SVGID_7_)" fill="url(#SVGID_9_)" d="M400.937,190.776c0,2.708-25.73,4.899-57.469,4.899
			c-31.741,0-57.467-2.191-57.467-4.899c0-2.711,25.727-4.903,57.467-4.903C375.207,185.874,400.937,188.065,400.937,190.776z"/>
		<path fill="#231F20" d="M384.488,24.949c0-6.375-5.168-11.542-11.542-11.542H315c-6.376,0-11.543,5.167-11.543,11.542v148.4
			c0,6.375,5.167,11.543,11.543,11.543h57.947c6.374,0,11.542-5.168,11.542-11.543V24.949z M352.45,28.54
			c0,1.009-0.815,1.825-1.825,1.825H338.26c-1.009,0-1.826-0.816-1.826-1.825v-0.118c0-1.009,0.816-1.825,1.826-1.825h12.365
			c1.009,0,1.825,0.816,1.825,1.825V28.54z M378.836,160.393h-68.785V37.904h68.785V160.393z"/>
	</g>
	<g>
		<rect x="310.708" y="50" fill-rule="evenodd" clip-rule="evenodd" fill="#8CC63F" width="68" height="45"/>
		<g>
			<path id="path72_2_" inkscape:connector-curvature="0" fill="#FFFFFF" d="M345.89,64.392
				c-0.193-10.818-30.707-10.896-31.154,0.581c-0.284,7.298,6.184,12.104,6.321,18.546c0.127,5.878,19.374,5.418,18.973-0.369
				C339.443,74.64,345.273,70.871,345.89,64.392"/>
			<path id="path124_2_" inkscape:connector-curvature="0" fill="#8CC63F" d="M329.454,65.533h1.313c1.443,0,2.625,1.112,2.625,2.47
				v16.961c0,1.359-1.181,2.472-2.625,2.472h-1.313c-1.444,0-2.625-1.112-2.625-2.472V68.003
				C326.83,66.645,328.01,65.533,329.454,65.533"/>
			<path id="path126_2_" inkscape:connector-curvature="0" fill="#8CC63F" d="M330.111,56.923c2.015,0,3.65,1.712,3.65,3.824
				s-1.635,3.824-3.65,3.824c-2.016,0-3.651-1.712-3.651-3.824S328.095,56.923,330.111,56.923"/>
		</g>
	</g>
	<rect x="313.708" y="100" fill="#D34658" width="60" height="33"/>
	<g>
		<rect x="313.708" y="139" fill="#666666" width="60" height="2"/>
		<rect x="313.708" y="143" fill="#999999" width="42" height="3"/>
		<rect x="313.708" y="147" fill="#999999" width="47" height="5"/>
	</g>
	<rect x="314.495" y="155" fill="#999999" width="41.469" height="0"/>
	<rect x="315.751" y="157" fill="#999999" width="55.958" height="0"/>
	<g>
		<rect x="349.708" y="64" fill="#FFFFFF" width="24" height="2"/>
		<rect x="349.708" y="70" fill="#FFFFFF" width="18" height="1"/>
		<rect x="349.889" y="75" fill="#FFFFFF" width="18.802" height="0"/>
	</g>
	<polygon opacity="0.3" fill="#FFFFFF" points="378.708,160.584 378.708,37 310.495,37 	"/>
</g>
</svg>
